<?xml version="1.0" encoding="UTF-8"?>
<svg width="59px" height="89px" viewBox="0 0 59 89" version="1.1" xmlns="http://www.w3.org/2000/svg" xmlns:xlink="http://www.w3.org/1999/xlink">
    <!-- Generator: sketchtool 47.1 (45422) - http://www.bohemiancoding.com/sketch -->
    <title>A3C8F14E-98E7-4DFD-8325-6C4B7E7BDAE6</title>
    <desc>Created with sketchtool.</desc>
    <defs></defs>
    <g id="Layout" stroke="none" stroke-width="1" fill="none" fill-rule="evenodd">
        <g id="Unonix-Office-Cleaning-1360-(v0.1)" transform="translate(-311.000000, -5237.000000)" fill-rule="nonzero" fill="#1B44B0">
            <g id="body">
                <g id="contacts" transform="translate(0.000000, 5011.000000)">
                    <g id="Group-7">
                        <g id="pin" transform="translate(311.000000, 226.000000)">
                            <path d="M29.5,0 C45.7659917,0 59,13.1701016 59,29.3573732 C59,34.2168402 57.7791518,39.0351953 55.4672667,43.2943246 L31.1132205,87.1263728 C30.7891244,87.710541 30.171527,88.0724638 29.5,88.0724638 C28.828473,88.0724638 28.2108756,87.710541 27.8867795,87.1263728 L3.5417216,43.308774 C1.2208482,39.0351953 0,34.2170123 0,29.3575453 C0,13.1701016 13.2340083,0 29.5,0 Z M29.5,39 C35.2989899,39 40,34.2989899 40,28.5 C40,22.7010101 35.2989899,18 29.5,18 C23.7010101,18 19,22.7010101 19,28.5 C19,34.2989899 23.7010101,39 29.5,39 Z" id="Combined-Shape"></path>
                        </g>
                    </g>
                </g>
            </g>
        </g>
    </g>
</svg>